<?xml version="1.0" standalone="no"?>
<!DOCTYPE svg PUBLIC "-//W3C//DTD SVG 20010904//EN"
 "http://www.w3.org/TR/2001/REC-SVG-20010904/DTD/svg10.dtd">
<svg version="1.0" xmlns="http://www.w3.org/2000/svg"
 width="1024.000000pt" height="1024.000000pt" viewBox="0 0 1024.000000 1024.000000"
 preserveAspectRatio="xMidYMid meet">

<g transform="translate(0.000000,1024.000000) scale(0.100000,-0.100000)"
fill="#000000" stroke="none">
<path d="M3443 8059 c-39 -11 -108 -88 -117 -130 -3 -17 -6 -573 -6 -1236 0
-1306 -3 -1241 53 -1302 49 -53 85 -61 305 -61 168 0 209 3 235 16 46 23 66
43 91 89 21 39 21 48 21 517 l0 478 1090 0 1090 0 -3 -442 c-2 -287 1 -461 8
-493 13 -60 41 -104 88 -136 34 -23 43 -24 236 -27 126 -2 215 1 238 8 49 14
94 53 121 104 l22 41 3 1205 c2 852 0 1216 -8 1243 -15 51 -63 102 -114 122
-36 14 -76 16 -249 13 l-205 -3 -44 -30 c-24 -17 -54 -51 -68 -75 l-25 -45 0
-452 0 -453 -1090 0 -1090 0 3 442 c2 376 0 448 -13 488 -17 51 -64 103 -108
119 -35 13 -419 13 -464 0z"/>
<path d="M2825 7663 c-35 -9 -87 -55 -101 -89 -12 -28 -14 -177 -14 -870 0
-924 -3 -879 64 -927 28 -20 45 -22 178 -25 166 -4 187 2 235 65 l28 36 0 852
0 852 -28 36 c-50 66 -66 72 -212 74 -71 1 -139 -1 -150 -4z"/>
<path d="M7124 7659 c-41 -12 -101 -79 -109 -121 -3 -18 -5 -402 -3 -854 l3
-820 27 -41 c43 -65 76 -75 243 -71 156 3 172 9 219 72 21 27 21 37 24 869 l2
842 -22 45 c-37 72 -83 90 -233 89 -66 0 -134 -5 -151 -10z"/>
<path d="M2469 7037 c-18 -12 -44 -38 -56 -56 -22 -33 -23 -41 -23 -276 0
-235 1 -243 23 -275 31 -47 77 -71 147 -77 l60 -6 0 357 0 356 -59 0 c-44 0
-66 -6 -92 -23z"/>
<path d="M7620 6705 l0 -358 60 6 c74 8 111 26 142 69 22 32 23 40 26 278 3
242 3 246 -20 279 -38 57 -71 75 -143 79 l-65 4 0 -357z"/>
<path d="M2280 4829 c-84 -14 -191 -71 -244 -130 -68 -75 -90 -141 -90 -269
-1 -93 2 -111 25 -160 52 -110 114 -161 344 -279 211 -107 245 -143 245 -258
0 -102 -52 -153 -157 -153 -53 0 -118 26 -146 58 -24 27 -46 88 -47 130 l0 32
-146 0 -147 0 6 -72 c18 -240 191 -377 473 -378 173 0 286 40 368 131 132 146
127 427 -10 578 -49 55 -139 110 -297 182 -195 89 -230 129 -212 246 13 86 89
127 187 103 64 -16 99 -56 113 -127 6 -32 15 -57 18 -55 4 1 70 2 147 2 l141
0 -7 63 c-19 173 -107 282 -273 337 -75 25 -209 34 -291 19z"/>
<path d="M4535 4830 c-198 -40 -316 -166 -362 -386 -24 -112 -24 -594 -1 -704
43 -203 125 -309 286 -371 69 -27 248 -37 332 -20 185 38 303 165 350 378 41
179 37 592 -6 760 -34 132 -119 243 -227 296 -100 48 -262 69 -372 47z m205
-282 c92 -47 115 -137 115 -453 0 -288 -17 -386 -79 -453 -32 -36 -70 -52
-121 -52 -84 0 -142 49 -172 145 -16 52 -18 97 -18 345 0 244 3 293 18 342 40
131 145 182 257 126z"/>
<path d="M7790 4833 c-147 -25 -274 -119 -321 -241 -30 -75 -33 -232 -6 -307
39 -111 114 -176 337 -290 83 -43 165 -89 182 -103 79 -67 90 -213 21 -274
-11 -10 -44 -23 -74 -29 -70 -14 -128 1 -175 44 -30 27 -37 43 -47 100 l-11
67 -143 0 -143 0 0 -34 c0 -199 131 -360 327 -401 127 -27 261 -18 378 26 83
31 173 121 204 204 45 117 38 283 -15 388 -47 91 -110 139 -324 245 -129 65
-201 106 -214 124 -26 36 -33 123 -13 170 22 52 59 73 128 72 96 -1 159 -59
159 -148 l0 -36 150 0 150 0 0 33 c0 52 -29 159 -55 203 -29 50 -90 106 -145
134 -91 46 -248 70 -350 53z"/>
<path d="M3060 4090 l0 -720 155 0 155 0 0 250 0 250 108 0 c287 1 451 105
502 320 20 83 16 242 -9 320 -52 165 -173 263 -359 290 -37 5 -176 10 -309 10
l-243 0 0 -720z m557 414 c55 -44 73 -86 73 -169 0 -95 -28 -151 -90 -182 -36
-19 -61 -23 -137 -23 l-93 0 0 206 0 206 104 -4 c99 -3 107 -5 143 -34z"/>
<path d="M5360 4090 l0 -720 155 0 155 0 0 255 0 255 63 0 62 0 84 -193 c47
-105 96 -220 110 -254 l24 -63 168 0 168 0 -63 138 c-35 75 -96 206 -135 291
-39 85 -70 155 -69 155 151 82 228 220 228 412 0 140 -43 246 -132 329 -106
98 -186 115 -555 115 l-263 0 0 -720z m557 442 c57 -29 83 -86 83 -178 -1
-154 -67 -214 -240 -214 l-90 0 0 211 0 212 103 -5 c77 -4 114 -11 144 -26z"/>
<path d="M6420 4680 l0 -130 145 0 145 0 0 -590 0 -590 155 0 155 0 0 590 0
590 156 0 157 0 -7 46 c-3 26 -6 84 -6 130 l0 84 -450 0 -450 0 0 -130z"/>
<path d="M2061 2965 c-60 -19 -108 -68 -126 -129 -19 -63 -19 -91 0 -148 21
-59 72 -107 175 -163 104 -57 130 -83 130 -133 0 -43 -7 -55 -37 -71 -59 -31
-133 7 -133 69 l0 30 -80 0 c-91 0 -90 0 -68 -87 25 -100 134 -162 265 -150
134 13 213 93 213 217 0 102 -49 167 -178 234 -117 60 -142 84 -142 136 0 49
27 80 71 80 45 0 67 -16 80 -59 l12 -40 74 -3 75 -3 -6 44 c-20 147 -165 226
-325 176z"/>
<path d="M8002 2969 c-18 -5 -52 -29 -76 -52 -36 -35 -46 -52 -56 -100 -26
-129 24 -208 189 -296 56 -30 106 -60 112 -67 6 -7 13 -31 16 -53 15 -110
-152 -125 -173 -16 l-6 35 -74 0 -74 0 0 -37 c1 -51 30 -113 69 -146 72 -61
218 -72 304 -25 66 38 100 88 105 158 2 33 1 76 -3 96 -9 53 -91 130 -187 177
-43 21 -89 52 -103 68 -49 59 -22 139 46 139 45 0 67 -16 80 -59 l12 -40 74
-3 75 -3 -6 44 c-9 66 -44 121 -99 155 -39 24 -60 30 -120 32 -39 2 -87 -1
-105 -7z"/>
<path d="M2502 2668 c3 -302 3 -303 29 -358 43 -92 137 -138 258 -127 70 6
130 35 168 82 52 63 56 86 60 408 l5 297 -86 0 -85 0 -3 -289 c-3 -276 -4
-291 -24 -318 -29 -38 -63 -49 -100 -32 -56 27 -59 46 -59 356 l0 283 -83 0
-83 0 3 -302z"/>
<path d="M3140 2580 l0 -390 85 0 85 0 0 130 0 130 63 0 c167 0 242 79 242
255 0 99 -22 161 -75 209 -53 47 -92 56 -257 56 l-143 0 0 -390z m265 244 c28
-11 45 -60 45 -127 0 -85 -17 -108 -88 -115 l-52 -5 0 127 0 126 39 0 c22 0
47 -3 56 -6z"/>
<path d="M3730 2580 l0 -390 85 0 85 0 0 130 0 130 63 0 c92 0 136 16 183 65
46 48 64 101 64 193 0 127 -58 227 -145 251 -22 6 -106 11 -187 11 l-148 0 0
-390z m289 229 c23 -25 36 -94 27 -143 -11 -56 -35 -78 -94 -84 l-52 -5 0 127
0 126 50 0 c37 0 54 -5 69 -21z"/>
<path d="M4320 2580 l0 -390 204 0 203 0 7 46 c13 101 23 94 -119 94 l-125 0
0 320 0 320 -85 0 -85 0 0 -390z"/>
<path d="M4840 2580 l0 -390 205 0 205 0 0 70 0 70 -125 0 -125 0 0 95 0 95
115 0 115 0 0 71 0 70 -112 -2 -113 -2 -3 92 -3 91 126 0 125 0 0 65 0 65
-205 0 -205 0 0 -390z"/>
<path d="M5370 2580 l0 -390 75 0 75 0 0 238 0 237 67 -167 66 -168 56 0 56 0
34 88 c19 48 49 125 68 172 l32 85 1 -242 0 -243 75 0 75 0 0 390 0 391 -86
-3 -86 -3 -34 -85 c-66 -162 -127 -305 -134 -313 -4 -4 -43 84 -88 195 l-82
203 -85 3 -85 3 0 -391z"/>
<path d="M6180 2580 l0 -390 203 2 202 3 3 68 3 67 -126 0 -125 0 0 95 0 95
115 0 115 0 0 71 0 70 -112 -2 -113 -2 -3 92 -3 91 121 0 120 0 0 65 0 65
-200 0 -200 0 0 -390z"/>
<path d="M6700 2580 l0 -390 81 0 81 0 -4 224 -3 223 74 -141 c40 -77 93 -178
118 -223 l44 -83 65 0 64 0 0 390 0 390 -81 0 -81 0 3 -225 4 -225 -113 225
-112 225 -70 0 -70 0 0 -390z"/>
<path d="M7320 2900 l0 -70 80 0 80 0 0 -320 0 -320 80 0 80 0 0 320 0 320 80
0 80 0 0 70 0 70 -240 0 -240 0 0 -70z"/>
</g>
</svg>
